{
	"asset":{
		"generator":"Khronos glTF Blender I/O v4.2.70",
		"version":"2.0"
	},
	"scene":0,
	"scenes":[
		{
			"name":"Scene",
			"nodes":[
				17
			]
		}
	],
	"nodes":[
		{
			"name":"513"
		},
		{
			"children":[
				0
			],
			"name":"512",
			"rotation":[
				1,
				0,
				0,
				6.123234262925839e-17
			]
		},
		{
			"children":[
				1
			],
			"name":"511",
			"translation":[
				0,
				0,
				10
			]
		},
		{
			"name":"517",
			"rotation":[
				0,
				0,
				0.7071068286895752,
				0.7071067094802856
			]
		},
		{
			"children":[
				3
			],
			"name":"516",
			"rotation":[
				0,
				0.2588191032409668,
				0,
				0.9659258127212524
			]
		},
		{
			"name":"531",
			"rotation":[
				0,
				0,
				0.7071068286895752,
				0.7071067094802856
			]
		},
		{
			"children":[
				5
			],
			"name":"530",
			"rotation":[
				0,
				0.2588191032409668,
				0,
				0.9659258127212524
			]
		},
		{
			"name":"534",
			"rotation":[
				0,
				0,
				0.7071068286895752,
				0.7071068286895752
			]
		},
		{
			"children":[
				7
			],
			"name":"533",
			"rotation":[
				0,
				-0.2588191032409668,
				0,
				0.9659258127212524
			]
		},
		{
			"children":[
				6,
				8
			],
			"name":"529_b",
			"translation":[
				0,
				0,
				0.7999999523162842
			]
		},
		{
			"children":[
				9
			],
			"mesh":0,
			"name":"529"
		},
		{
			"children":[
				10
			],
			"name":"520",
			"rotation":[
				0,
				0,
				0.7071068286895752,
				0.7071067094802856
			]
		},
		{
			"children":[
				11
			],
			"name":"519",
			"rotation":[
				0,
				-0.2588191032409668,
				0,
				0.9659258127212524
			]
		},
		{
			"children":[
				4,
				12
			],
			"name":"515_b",
			"translation":[
				0,
				0,
				1
			]
		},
		{
			"children":[
				13
			],
			"mesh":1,
			"name":"515"
		},
		{
			"children":[
				2,
				14
			],
			"name":"509"
		},
		{
			"children":[
				15
			],
			"name":"0"
		},
		{
			"children":[
				16
			],
			"name":"Node_0"
		}
	],
	"meshes":[
		{
			"name":"Mesh_8.002",
			"primitives":[
				{
					"attributes":{
						"POSITION":0,
						"NORMAL":1
					},
					"indices":2
				}
			]
		},
		{
			"name":"Mesh_0.003",
			"primitives":[
				{
					"attributes":{
						"POSITION":3,
						"NORMAL":4
					},
					"indices":2
				}
			]
		}
	],
	"accessors":[
		{
			"bufferView":0,
			"componentType":5126,
			"count":360,
			"max":[
				0.05000000074505806,
				0.05000000074505806,
				0.800000011920929
			],
			"min":[
				-0.05000000074505806,
				-0.05000000074505806,
				0
			],
			"type":"VEC3"
		},
		{
			"bufferView":1,
			"componentType":5126,
			"count":360,
			"type":"VEC3"
		},
		{
			"bufferView":2,
			"componentType":5123,
			"count":360,
			"type":"SCALAR"
		},
		{
			"bufferView":3,
			"componentType":5126,
			"count":360,
			"max":[
				0.05000000074505806,
				0.05000000074505806,
				1
			],
			"min":[
				-0.05000000074505806,
				-0.05000000074505806,
				0
			],
			"type":"VEC3"
		},
		{
			"bufferView":4,
			"componentType":5126,
			"count":360,
			"type":"VEC3"
		}
	],
	"bufferViews":[
		{
			"buffer":0,
			"byteLength":4320,
			"byteOffset":0,
			"target":34962
		},
		{
			"buffer":0,
			"byteLength":4320,
			"byteOffset":4320,
			"target":34962
		},
		{
			"buffer":0,
			"byteLength":720,
			"byteOffset":8640,
			"target":34963
		},
		{
			"buffer":0,
			"byteLength":4320,
			"byteOffset":9360,
			"target":34962
		},
		{
			"buffer":0,
			"byteLength":4320,
			"byteOffset":13680,
			"target":34962
		}
	],
	"buffers":[
		{
			"byteLength":18000,
			"uri":"plant3.bin"
		}
	]
}
