{
	"asset":{
		"generator":"Khronos glTF Blender I/O v4.2.70",
		"version":"2.0"
	},
	"scene":0,
	"scenes":[
		{
			"name":"Scene",
			"nodes":[
				0,
				1,
				2,
				3,
				4,
				5,
				6,
				7
			]
		}
	],
	"nodes":[
		{
			"mesh":0,
			"name":"Sphere",
			"translation":[
				-0.38598310947418213,
				0,
				0.49838361144065857
			]
		},
		{
			"mesh":1,
			"name":"Sphere.001",
			"rotation":[
				-0.6207913756370544,
				-0.45836329460144043,
				0.3777872323989868,
				0.5116620659828186
			],
			"translation":[
				0.067676842212677,
				0.3855588138103485,
				0.49838361144065857
			]
		},
		{
			"mesh":2,
			"name":"Sphere.002",
			"scale":[
				1.434287667274475,
				1.434287667274475,
				1.434287667274475
			],
			"translation":[
				0.6221249103546143,
				0.17731040716171265,
				0.49838361144065857
			]
		},
		{
			"mesh":3,
			"name":"Sphere.003",
			"translation":[
				0.47460126876831055,
				-0.4857369661331177,
				0.49838361144065857
			]
		},
		{
			"mesh":4,
			"name":"Sphere.004",
			"translation":[
				0.00844225287437439,
				-0.4857369661331177,
				0.49838361144065857
			]
		},
		{
			"mesh":5,
			"name":"Sphere.005",
			"translation":[
				-0.4580453932285309,
				-0.4857369661331177,
				0.49838361144065857
			]
		},
		{
			"mesh":6,
			"name":"Sphere.006",
			"translation":[
				-0.44808229804039,
				0.41979414224624634,
				0.3071064054965973
			]
		},
		{
			"mesh":7,
			"name":"Cube",
			"translation":[
				0,
				0,
				1
			]
		}
	],
	"meshes":[
		{
			"name":"Sphere",
			"primitives":[
				{
					"attributes":{
						"POSITION":0,
						"NORMAL":1,
						"TEXCOORD_0":2
					},
					"indices":3
				}
			]
		},
		{
			"name":"Sphere.001",
			"primitives":[
				{
					"attributes":{
						"POSITION":4,
						"NORMAL":5,
						"TEXCOORD_0":6
					},
					"indices":3
				}
			]
		},
		{
			"name":"Sphere.002",
			"primitives":[
				{
					"attributes":{
						"POSITION":7,
						"NORMAL":8,
						"TEXCOORD_0":9
					},
					"indices":3
				}
			]
		},
		{
			"name":"Sphere.003",
			"primitives":[
				{
					"attributes":{
						"POSITION":10,
						"NORMAL":11,
						"TEXCOORD_0":12
					},
					"indices":3
				}
			]
		},
		{
			"name":"Sphere.004",
			"primitives":[
				{
					"attributes":{
						"POSITION":13,
						"NORMAL":14,
						"TEXCOORD_0":15
					},
					"indices":3
				}
			]
		},
		{
			"name":"Sphere.005",
			"primitives":[
				{
					"attributes":{
						"POSITION":16,
						"NORMAL":17,
						"TEXCOORD_0":18
					},
					"indices":3
				}
			]
		},
		{
			"name":"Sphere.006",
			"primitives":[
				{
					"attributes":{
						"POSITION":19,
						"NORMAL":20,
						"TEXCOORD_0":21
					},
					"indices":3
				}
			]
		},
		{
			"name":"Cube.001",
			"primitives":[
				{
					"attributes":{
						"POSITION":22,
						"NORMAL":23,
						"TEXCOORD_0":24
					},
					"indices":25
				}
			]
		}
	],
	"accessors":[
		{
			"bufferView":0,
			"componentType":5126,
			"count":2042,
			"max":[
				0.19999991357326508,
				0.20000000298023224,
				0.20000000298023224
			],
			"min":[
				-0.19999980926513672,
				-0.1999998539686203,
				-0.20000000298023224
			],
			"type":"VEC3"
		},
		{
			"bufferView":1,
			"componentType":5126,
			"count":2042,
			"type":"VEC3"
		},
		{
			"bufferView":2,
			"componentType":5126,
			"count":2042,
			"type":"VEC2"
		},
		{
			"bufferView":3,
			"componentType":5123,
			"count":2880,
			"type":"SCALAR"
		},
		{
			"bufferView":4,
			"componentType":5126,
			"count":2042,
			"max":[
				0.19999991357326508,
				0.20000000298023224,
				0.20000000298023224
			],
			"min":[
				-0.19999980926513672,
				-0.1999998539686203,
				-0.20000000298023224
			],
			"type":"VEC3"
		},
		{
			"bufferView":5,
			"componentType":5126,
			"count":2042,
			"type":"VEC3"
		},
		{
			"bufferView":6,
			"componentType":5126,
			"count":2042,
			"type":"VEC2"
		},
		{
			"bufferView":7,
			"componentType":5126,
			"count":2042,
			"max":[
				0.19999991357326508,
				0.20000000298023224,
				0.20000000298023224
			],
			"min":[
				-0.19999980926513672,
				-0.1999998539686203,
				-0.20000000298023224
			],
			"type":"VEC3"
		},
		{
			"bufferView":8,
			"componentType":5126,
			"count":2042,
			"type":"VEC3"
		},
		{
			"bufferView":9,
			"componentType":5126,
			"count":2042,
			"type":"VEC2"
		},
		{
			"bufferView":10,
			"componentType":5126,
			"count":2042,
			"max":[
				0.19999991357326508,
				0.20000000298023224,
				0.20000000298023224
			],
			"min":[
				-0.19999980926513672,
				-0.1999998539686203,
				-0.20000000298023224
			],
			"type":"VEC3"
		},
		{
			"bufferView":11,
			"componentType":5126,
			"count":2042,
			"type":"VEC3"
		},
		{
			"bufferView":12,
			"componentType":5126,
			"count":2042,
			"type":"VEC2"
		},
		{
			"bufferView":13,
			"componentType":5126,
			"count":2042,
			"max":[
				0.19999991357326508,
				0.20000000298023224,
				0.20000000298023224
			],
			"min":[
				-0.19999980926513672,
				-0.1999998539686203,
				-0.20000000298023224
			],
			"type":"VEC3"
		},
		{
			"bufferView":14,
			"componentType":5126,
			"count":2042,
			"type":"VEC3"
		},
		{
			"bufferView":15,
			"componentType":5126,
			"count":2042,
			"type":"VEC2"
		},
		{
			"bufferView":16,
			"componentType":5126,
			"count":2042,
			"max":[
				0.19999991357326508,
				0.20000000298023224,
				0.20000000298023224
			],
			"min":[
				-0.19999980926513672,
				-0.1999998539686203,
				-0.20000000298023224
			],
			"type":"VEC3"
		},
		{
			"bufferView":17,
			"componentType":5126,
			"count":2042,
			"type":"VEC3"
		},
		{
			"bufferView":18,
			"componentType":5126,
			"count":2042,
			"type":"VEC2"
		},
		{
			"bufferView":19,
			"componentType":5126,
			"count":2042,
			"max":[
				0.19999991357326508,
				0.20000000298023224,
				0.20000000298023224
			],
			"min":[
				-0.19999980926513672,
				-0.1999998539686203,
				-0.20000000298023224
			],
			"type":"VEC3"
		},
		{
			"bufferView":20,
			"componentType":5126,
			"count":2042,
			"type":"VEC3"
		},
		{
			"bufferView":21,
			"componentType":5126,
			"count":2042,
			"type":"VEC2"
		},
		{
			"bufferView":22,
			"componentType":5126,
			"count":20,
			"max":[
				1,
				1,
				1
			],
			"min":[
				-1,
				-1,
				-1
			],
			"type":"VEC3"
		},
		{
			"bufferView":23,
			"componentType":5126,
			"count":20,
			"type":"VEC3"
		},
		{
			"bufferView":24,
			"componentType":5126,
			"count":20,
			"type":"VEC2"
		},
		{
			"bufferView":25,
			"componentType":5123,
			"count":30,
			"type":"SCALAR"
		}
	],
	"bufferViews":[
		{
			"buffer":0,
			"byteLength":24504,
			"byteOffset":0,
			"target":34962
		},
		{
			"buffer":0,
			"byteLength":24504,
			"byteOffset":24504,
			"target":34962
		},
		{
			"buffer":0,
			"byteLength":16336,
			"byteOffset":49008,
			"target":34962
		},
		{
			"buffer":0,
			"byteLength":5760,
			"byteOffset":65344,
			"target":34963
		},
		{
			"buffer":0,
			"byteLength":24504,
			"byteOffset":71104,
			"target":34962
		},
		{
			"buffer":0,
			"byteLength":24504,
			"byteOffset":95608,
			"target":34962
		},
		{
			"buffer":0,
			"byteLength":16336,
			"byteOffset":120112,
			"target":34962
		},
		{
			"buffer":0,
			"byteLength":24504,
			"byteOffset":136448,
			"target":34962
		},
		{
			"buffer":0,
			"byteLength":24504,
			"byteOffset":160952,
			"target":34962
		},
		{
			"buffer":0,
			"byteLength":16336,
			"byteOffset":185456,
			"target":34962
		},
		{
			"buffer":0,
			"byteLength":24504,
			"byteOffset":201792,
			"target":34962
		},
		{
			"buffer":0,
			"byteLength":24504,
			"byteOffset":226296,
			"target":34962
		},
		{
			"buffer":0,
			"byteLength":16336,
			"byteOffset":250800,
			"target":34962
		},
		{
			"buffer":0,
			"byteLength":24504,
			"byteOffset":267136,
			"target":34962
		},
		{
			"buffer":0,
			"byteLength":24504,
			"byteOffset":291640,
			"target":34962
		},
		{
			"buffer":0,
			"byteLength":16336,
			"byteOffset":316144,
			"target":34962
		},
		{
			"buffer":0,
			"byteLength":24504,
			"byteOffset":332480,
			"target":34962
		},
		{
			"buffer":0,
			"byteLength":24504,
			"byteOffset":356984,
			"target":34962
		},
		{
			"buffer":0,
			"byteLength":16336,
			"byteOffset":381488,
			"target":34962
		},
		{
			"buffer":0,
			"byteLength":24504,
			"byteOffset":397824,
			"target":34962
		},
		{
			"buffer":0,
			"byteLength":24504,
			"byteOffset":422328,
			"target":34962
		},
		{
			"buffer":0,
			"byteLength":16336,
			"byteOffset":446832,
			"target":34962
		},
		{
			"buffer":0,
			"byteLength":240,
			"byteOffset":463168,
			"target":34962
		},
		{
			"buffer":0,
			"byteLength":240,
			"byteOffset":463408,
			"target":34962
		},
		{
			"buffer":0,
			"byteLength":160,
			"byteOffset":463648,
			"target":34962
		},
		{
			"buffer":0,
			"byteLength":60,
			"byteOffset":463808,
			"target":34963
		}
	],
	"buffers":[
		{
			"byteLength":463868,
			"uri":"box.bin"
		}
	]
}
